<svg xmlns="http://www.w3.org/2000/svg" xmlns:xlink="http://www.w3.org/1999/xlink" width="500" zoomAndPan="magnify" viewBox="0 0 375 374.999991" height="500" preserveAspectRatio="xMidYMid meet" version="1.0"><defs><clipPath id="a6f99c4a18"><path d="M 143.078125 213.898438 L 148.464844 213.898438 L 148.464844 219.28125 L 143.078125 219.28125 Z M 143.078125 213.898438 " clip-rule="nonzero"/></clipPath><clipPath id="844b51a0bd"><path d="M 145.773438 213.898438 C 144.285156 213.898438 143.078125 215.101562 143.078125 216.589844 C 143.078125 218.078125 144.285156 219.28125 145.773438 219.28125 C 147.257812 219.28125 148.464844 218.078125 148.464844 216.589844 C 148.464844 215.101562 147.257812 213.898438 145.773438 213.898438 Z M 145.773438 213.898438 " clip-rule="nonzero"/></clipPath><clipPath id="b799a4db55"><path d="M 109.605469 158 L 111 158 L 111 170 L 109.605469 170 Z M 109.605469 158 " clip-rule="nonzero"/></clipPath><clipPath id="1f7e37b6ce"><path d="M 188 259 L 195 259 L 195 260.777344 L 188 260.777344 Z M 188 259 " clip-rule="nonzero"/></clipPath><clipPath id="e06dd75562"><path d="M 195 259 L 201 259 L 201 260.777344 L 195 260.777344 Z M 195 259 " clip-rule="nonzero"/></clipPath><clipPath id="35dbe72e4d"><path d="M 204 260 L 208 260 L 208 260.777344 L 204 260.777344 Z M 204 260 " clip-rule="nonzero"/></clipPath><clipPath id="f13e001749"><path d="M 157 89.027344 L 163 89.027344 L 163 93 L 157 93 Z M 157 89.027344 " clip-rule="nonzero"/></clipPath><clipPath id="c64c0f1215"><path d="M 157 89.027344 L 162 89.027344 L 162 92 L 157 92 Z M 157 89.027344 " clip-rule="nonzero"/></clipPath><clipPath id="e2432a64a5"><path d="M 245 211 L 246.855469 211 L 246.855469 214 L 245 214 Z M 245 211 " clip-rule="nonzero"/></clipPath></defs><rect x="-37.5" width="450" fill="#ffffff" y="-37.499999" height="449.999989" fill-opacity="1"/><rect x="-37.5" width="450" fill="#ffffff" y="-37.499999" height="449.999989" fill-opacity="1"/><g clip-path="url(#a6f99c4a18)"><g clip-path="url(#844b51a0bd)"><path fill="#222222" d="M 143.078125 213.898438 L 148.464844 213.898438 L 148.464844 219.28125 L 143.078125 219.28125 Z M 143.078125 213.898438 " fill-opacity="1" fill-rule="nonzero"/></g></g><path fill="#8c52ff" d="M 139.800781 236.042969 C 138.214844 234.410156 135.4375 231.71875 134.292969 230.996094 C 134.230469 230.964844 134.136719 230.941406 134.070312 230.941406 C 134.089844 231.714844 141.308594 238.707031 142.117188 238.734375 C 142.09375 238.453125 140.847656 237.113281 139.800781 236.042969 " fill-opacity="1" fill-rule="nonzero"/><path fill="#8c52ff" d="M 149.179688 242.8125 C 147.507812 241.390625 144.484375 239.058594 142.992188 238.480469 C 142.882812 238.449219 142.714844 238.40625 142.660156 238.457031 C 142.367188 238.71875 144.265625 240.503906 146.21875 242.007812 C 148.722656 243.9375 151.003906 245.339844 151.414062 245.203125 C 151.546875 244.898438 150.070312 243.578125 149.179688 242.8125 " fill-opacity="1" fill-rule="nonzero"/><path fill="#8c52ff" d="M 117.972656 206.375 C 117.9375 206.335938 117.871094 206.300781 117.820312 206.296875 C 117.804688 207.308594 122.628906 216.53125 123.195312 216.574219 C 123.203125 216.167969 122.238281 214.148438 121.664062 212.980469 C 120.660156 210.941406 118.769531 207.347656 117.972656 206.375 " fill-opacity="1" fill-rule="nonzero"/><path fill="#8c52ff" d="M 123.976562 216.269531 C 123.875 216.222656 123.75 216.164062 123.6875 216.226562 C 123.0625 216.863281 128.722656 225.234375 130.066406 225.652344 C 130.582031 225.816406 130.019531 224.425781 128.691406 222.273438 C 127.449219 220.261719 125.167969 217.070312 123.976562 216.269531 " fill-opacity="1" fill-rule="nonzero"/><path fill="#8c52ff" d="M 137.15625 230.566406 C 135.789062 228.738281 133.144531 225.871094 131.558594 225.21875 C 131.425781 225.183594 131.246094 225.140625 131.144531 225.210938 C 130.054688 225.964844 136.433594 233.433594 138.410156 233.710938 C 139.132812 233.8125 138.621094 232.519531 137.15625 230.566406 " fill-opacity="1" fill-rule="nonzero"/><path fill="#8c52ff" d="M 113.71875 195.617188 C 113.78125 195.816406 113.878906 196.109375 114 196.464844 C 113.90625 196.175781 113.808594 195.886719 113.71875 195.613281 L 113.71875 195.617188 " fill-opacity="1" fill-rule="nonzero"/><path fill="#8c52ff" d="M 120.742188 209.78125 C 121.5 210.207031 121.367188 208.503906 120.433594 205.8125 C 119.628906 203.492188 117.949219 199.835938 116.746094 198.980469 C 116.675781 198.949219 116.574219 198.898438 116.5 198.914062 C 115.246094 199.152344 119.015625 208.800781 120.742188 209.78125 " fill-opacity="1" fill-rule="nonzero"/><path fill="#8c52ff" d="M 127.789062 219.25 C 128.828125 219.589844 128.753906 217.960938 127.617188 215.457031 C 126.636719 213.289062 124.507812 209.917969 122.851562 209.199219 C 122.707031 209.167969 122.511719 209.121094 122.367188 209.214844 C 120.917969 210.121094 125.429688 218.46875 127.789062 219.25 " fill-opacity="1" fill-rule="nonzero"/><path fill="#8c52ff" d="M 136.066406 227.675781 C 137.578125 228.171875 137.695312 226.582031 136.328125 224.132812 C 135.039062 221.820312 132.488281 219.011719 130.621094 218.507812 C 130.441406 218.488281 130.195312 218.460938 130.003906 218.558594 C 128.222656 219.503906 132.980469 226.65625 136.066406 227.675781 " fill-opacity="1" fill-rule="nonzero"/><path fill="#8c52ff" d="M 112.503906 188.011719 C 112.464844 187.976562 112.402344 187.933594 112.351562 187.921875 C 111.597656 188.390625 114.566406 199.210938 115.53125 199.496094 C 115.910156 199.257812 115.210938 196.214844 114.984375 195.285156 C 114.433594 193.011719 113.273438 189.027344 112.503906 188.011719 " fill-opacity="1" fill-rule="nonzero"/><path fill="#8c52ff" d="M 120.097656 202.164062 C 121.316406 202.839844 121.761719 200.890625 121.085938 197.820312 C 120.550781 195.378906 119.058594 191.605469 117.425781 190.867188 C 117.316406 190.84375 117.164062 190.8125 117.054688 190.835938 C 114.953125 191.296875 117.484375 200.71875 120.097656 202.164062 " fill-opacity="1" fill-rule="nonzero"/><path fill="#8c52ff" d="M 126.96875 211.863281 C 128.714844 212.75 129.402344 210.835938 128.441406 207.765625 C 127.710938 205.4375 125.730469 201.894531 123.609375 201.292969 C 123.46875 201.277344 123.273438 201.257812 123.132812 201.292969 C 120.648438 201.882812 123.660156 210.179688 126.96875 211.863281 " fill-opacity="1" fill-rule="nonzero"/><path fill="#8c52ff" d="M 135.292969 220.617188 C 137.589844 221.675781 138.550781 219.839844 137.3125 216.765625 C 136.433594 214.59375 134.074219 211.335938 131.578125 210.90625 C 131.351562 210.902344 131.039062 210.894531 130.761719 211.023438 C 128.433594 212.128906 131.652344 218.941406 135.292969 220.617188 " fill-opacity="1" fill-rule="nonzero"/><path fill="#8c52ff" d="M 114.742188 191.515625 C 115.605469 192.285156 116 190.363281 115.621094 187.230469 C 115.324219 184.785156 114.390625 180.957031 113.246094 180.101562 C 113.171875 180.070312 113.058594 180.027344 112.980469 180.042969 C 111.421875 180.320312 112.890625 189.863281 114.742188 191.515625 " fill-opacity="1" fill-rule="nonzero"/><path fill="#8c52ff" d="M 123.640625 189.183594 C 123.371094 186.722656 122.070312 182.984375 120.015625 182.382812 C 119.871094 182.367188 119.671875 182.355469 119.527344 182.386719 C 116.992188 182.980469 118.058594 191.320312 120.953125 193.542969 C 122.726562 194.90625 124.03125 192.785156 123.640625 189.183594 " fill-opacity="1" fill-rule="nonzero"/><path fill="#8c52ff" d="M 131.019531 199.164062 C 130.527344 196.707031 128.71875 193.039062 126.234375 192.589844 C 126.054688 192.585938 125.8125 192.582031 125.640625 192.628906 C 122.757812 193.371094 124.277344 201.050781 127.78125 203.441406 C 130.171875 205.070312 131.777344 202.953125 131.019531 199.164062 " fill-opacity="1" fill-rule="nonzero"/><path fill="#8c52ff" d="M 139.871094 208.441406 C 139.214844 206.097656 137.019531 202.664062 134.195312 202.371094 C 133.992188 202.378906 133.722656 202.394531 133.527344 202.449219 C 130.363281 203.351562 132.4375 210.632812 136.449219 212.695312 C 139.171875 214.097656 140.863281 211.992188 139.871094 208.441406 " fill-opacity="1" fill-rule="nonzero"/><path fill="#8c52ff" d="M 115.945312 183.191406 C 117.167969 184.246094 118.199219 182.222656 118.152344 178.855469 C 118.113281 176.410156 117.375 172.636719 115.835938 171.917969 C 115.726562 171.894531 115.570312 171.867188 115.457031 171.890625 C 113.269531 172.34375 113.648438 181.21875 115.945312 183.191406 " fill-opacity="1" fill-rule="nonzero"/><path fill="#8c52ff" d="M 127.875 180.171875 C 127.828125 177.703125 126.695312 174.023438 124.332031 173.578125 C 124.246094 173.578125 124.125 173.566406 124.035156 173.574219 C 120.898438 173.800781 120.546875 181.324219 123.535156 184.3125 C 125.683594 186.464844 127.957031 184.296875 127.875 180.171875 " fill-opacity="1" fill-rule="nonzero"/><path fill="#8c52ff" d="M 135.089844 189.859375 C 134.824219 187.378906 133.210938 183.75 130.457031 183.453125 C 130.355469 183.457031 130.21875 183.457031 130.117188 183.46875 C 126.566406 183.890625 126.851562 191.476562 130.523438 194.289062 C 133.140625 196.296875 135.527344 193.976562 135.089844 189.859375 " fill-opacity="1" fill-rule="nonzero"/><path fill="#8c52ff" d="M 143.824219 199.183594 C 143.367188 196.707031 141.335938 193.152344 138.246094 193.003906 C 138.132812 193.015625 137.980469 193.019531 137.867188 193.039062 C 134.222656 193.613281 134.753906 200.65625 138.65625 203.503906 C 141.816406 205.8125 144.617188 203.464844 143.824219 199.183594 " fill-opacity="1" fill-rule="nonzero"/><path fill="#8c52ff" d="M 118.667969 174.328125 C 120.226562 176.128906 122.109375 174.042969 122.402344 170.199219 C 122.585938 167.761719 121.992188 164.074219 120.101562 163.496094 C 120.027344 163.492188 119.933594 163.472656 119.859375 163.476562 C 117.226562 163.519531 116.335938 171.632812 118.667969 174.328125 " fill-opacity="1" fill-rule="nonzero"/><path fill="#8c52ff" d="M 127.824219 175.144531 C 130.042969 177.65625 133.027344 175.390625 133.242188 171.035156 C 133.363281 168.574219 132.382812 164.980469 129.824219 164.6875 C 125.988281 164.851562 125.1875 172.160156 127.824219 175.144531 " fill-opacity="1" fill-rule="nonzero"/><path fill="#8c52ff" d="M 140.296875 180.390625 C 140.207031 177.902344 138.75 174.332031 135.800781 174.175781 C 131.492188 174.550781 131.3125 181.953125 134.585938 184.816406 C 137.3125 187.203125 140.460938 184.761719 140.296875 180.390625 " fill-opacity="1" fill-rule="nonzero"/><path fill="#8c52ff" d="M 142.503906 193.832031 C 145.765625 196.640625 149.394531 194.140625 148.867188 189.449219 C 148.585938 186.953125 146.714844 183.429688 143.429688 183.417969 C 138.960938 183.96875 138.992188 190.808594 142.503906 193.832031 " fill-opacity="1" fill-rule="nonzero"/><path fill="#8c52ff" d="M 127.90625 161.46875 C 128.257812 159.058594 127.792969 155.46875 125.664062 155.050781 C 122.269531 155.007812 120.878906 162.835938 123.066406 165.554688 C 124.777344 167.6875 127.308594 165.546875 127.90625 161.46875 " fill-opacity="1" fill-rule="nonzero"/><path fill="#8c52ff" d="M 155.582031 235.417969 C 158.257812 236.097656 159.316406 234.410156 157.851562 231.808594 C 156.816406 229.96875 154.035156 227.328125 151.097656 227.226562 C 150.695312 227.257812 150.28125 227.285156 149.878906 227.566406 C 147.609375 229.148438 151.390625 234.359375 155.582031 235.417969 " fill-opacity="1" fill-rule="nonzero"/><path fill="#8c52ff" d="M 160.46875 224.195312 C 159.636719 222.164062 156.992188 219.3125 153.722656 219.332031 C 153.421875 219.367188 153.007812 219.414062 152.617188 219.601562 C 149.632812 221.011719 151.984375 226.4375 156.316406 228.136719 C 159.652344 229.445312 161.785156 227.421875 160.46875 224.195312 " fill-opacity="1" fill-rule="nonzero"/><path fill="#8c52ff" d="M 164.417969 215.589844 C 163.765625 213.375 161.246094 210.320312 157.695312 210.46875 C 157.5625 210.488281 157.390625 210.507812 157.261719 210.535156 C 153.351562 211.359375 154.070312 217.160156 158.390625 219.660156 C 162.222656 221.871094 165.601562 219.589844 164.417969 215.589844 " fill-opacity="1" fill-rule="nonzero"/><path fill="#8c52ff" d="M 162.773438 200.683594 C 162.636719 200.710938 162.449219 200.734375 162.308594 200.769531 C 158.089844 201.789062 158.328125 208.074219 162.6875 210.660156 C 166.523438 212.9375 170.386719 210.296875 169.46875 206.03125 C 168.957031 203.648438 166.539062 200.414062 162.773438 200.683594 " fill-opacity="1" fill-rule="nonzero"/><path fill="#8c52ff" d="M 156.226562 241.554688 C 158.058594 241.792969 158.285156 240.40625 156.738281 238.398438 C 155.476562 236.757812 152.542969 234.34375 149.984375 234.121094 C 149.640625 234.128906 149.285156 234.136719 148.992188 234.363281 C 147.183594 235.761719 152.523438 241.070312 156.226562 241.554688 " fill-opacity="1" fill-rule="nonzero"/><path fill="#8c52ff" d="M 158.226562 246.582031 C 159.25 246.558594 158.855469 245.507812 157.246094 243.96875 C 155.839844 242.621094 152.765625 240.359375 150.503906 240.015625 C 150.222656 240.003906 149.933594 239.988281 149.753906 240.164062 C 148.5625 241.304688 155.609375 246.648438 158.226562 246.582031 " fill-opacity="1" fill-rule="nonzero"/><path fill="#8c52ff" d="M 145.863281 221.019531 C 149.316406 222.714844 151.5625 220.480469 150.238281 216.667969 C 149.410156 214.285156 146.730469 210.867188 143.371094 210.726562 C 143.132812 210.746094 142.808594 210.777344 142.582031 210.84375 C 139.039062 211.90625 141.246094 218.753906 145.863281 221.019531 " fill-opacity="1" fill-rule="nonzero"/><path fill="#8c52ff" d="M 145.242188 228.773438 C 147.957031 229.699219 149.085938 227.757812 147.605469 224.699219 C 146.542969 222.507812 143.703125 219.300781 140.699219 219.019531 C 140.425781 219.027344 140.050781 219.039062 139.714844 219.195312 C 136.863281 220.527344 140.734375 227.238281 145.242188 228.773438 " fill-opacity="1" fill-rule="nonzero"/><path fill="#8c52ff" d="M 114.964844 168.449219 C 115.1875 165.832031 114.988281 161.75 113.851562 160.878906 C 113.765625 160.847656 113.640625 160.804688 113.550781 160.820312 C 111.628906 161.152344 111.082031 171.367188 112.894531 173.097656 C 113.75 173.917969 114.679688 171.832031 114.964844 168.449219 " fill-opacity="1" fill-rule="nonzero"/><path fill="#8c52ff" d="M 111.152344 168.707031 C 111.101562 168.667969 111.027344 168.605469 110.96875 168.613281 C 109.8125 168.742188 110.335938 179.851562 111.554688 181.128906 C 112.074219 181.667969 112.414062 179.6875 112.347656 176.523438 C 112.296875 173.886719 111.886719 169.71875 111.152344 168.707031 " fill-opacity="1" fill-rule="nonzero"/><path fill="#8c52ff" d="M 153.820312 207.671875 C 153.238281 205.304688 150.90625 201.972656 147.539062 201.976562 C 147.296875 202.007812 146.96875 202.050781 146.734375 202.128906 C 143.183594 203.300781 144.253906 209.585938 148.421875 212.019531 C 151.878906 214.042969 154.808594 211.683594 153.820312 207.671875 " fill-opacity="1" fill-rule="nonzero"/><path fill="#8c52ff" d="M 152.28125 202.382812 C 155.910156 204.964844 159.679688 202.339844 158.894531 197.78125 C 158.46875 195.289062 156.261719 191.839844 152.695312 191.972656 C 152.5625 191.992188 152.386719 192.011719 152.253906 192.039062 C 148.210938 192.925781 148.226562 199.5 152.28125 202.382812 " fill-opacity="1" fill-rule="nonzero"/><path fill="#8c52ff" d="M 145.761719 235.0625 C 147.5 235.425781 147.695312 233.945312 146.203125 231.691406 C 144.992188 229.859375 142.214844 227.113281 139.828125 226.730469 C 139.511719 226.71875 139.183594 226.707031 138.914062 226.929688 C 137.28125 228.273438 142.402344 234.351562 145.761719 235.0625 " fill-opacity="1" fill-rule="nonzero"/><path fill="#8c52ff" d="M 147.867188 240.625 C 148.773438 240.660156 148.332031 239.472656 146.789062 237.730469 C 145.332031 236.085938 142.414062 233.554688 140.472656 233.058594 C 140.21875 233.027344 139.976562 232.996094 139.839844 233.171875 C 138.917969 234.335938 145.59375 240.535156 147.867188 240.625 " fill-opacity="1" fill-rule="nonzero"/><g clip-path="url(#b799a4db55)"><path fill="#8c52ff" d="M 110.898438 158.21875 C 110.890625 158.195312 110.875 158.164062 110.867188 158.140625 C 110.84375 158.136719 110.8125 158.136719 110.785156 158.136719 C 110.183594 159.148438 109.601562 168.414062 110.070312 169.53125 C 110.097656 169.53125 110.128906 169.535156 110.152344 169.535156 C 110.414062 169.050781 110.636719 166.742188 110.746094 165.410156 C 110.925781 163.171875 111.128906 159.238281 110.898438 158.21875 " fill-opacity="1" fill-rule="nonzero"/></g><path fill="#8c52ff" d="M 113.335938 157.734375 C 113.78125 155.378906 114.15625 151.671875 113.585938 150.8125 C 113.542969 150.777344 113.46875 150.730469 113.414062 150.734375 C 112.167969 150.875 110.574219 160.78125 111.617188 161.894531 C 112.0625 162.367188 112.800781 160.578125 113.335938 157.734375 " fill-opacity="1" fill-rule="nonzero"/><path fill="#8c52ff" d="M 117.546875 149.902344 C 118.207031 147.589844 118.746094 144.003906 117.867188 143.277344 C 117.828125 143.265625 117.78125 143.238281 117.742188 143.230469 C 116.027344 142.949219 113.492188 151.828125 114.691406 153.90625 C 115.308594 154.980469 116.617188 153.148438 117.546875 149.902344 " fill-opacity="1" fill-rule="nonzero"/><path fill="#8c52ff" d="M 119.316406 145.890625 C 120.054688 147.238281 121.875 145.363281 123.140625 141.960938 C 123.980469 139.707031 124.648438 136.261719 123.511719 135.675781 C 121.382812 135.296875 118.011719 143.507812 119.316406 145.890625 " fill-opacity="1" fill-rule="nonzero"/><path fill="#8c52ff" d="M 119.011719 159.914062 C 119.4375 157.53125 119.417969 153.871094 118.046875 153.203125 C 117.992188 153.195312 117.921875 153.171875 117.867188 153.171875 C 115.648438 153.050781 114.019531 161.558594 115.789062 164.007812 C 116.816406 165.425781 118.382812 163.4375 119.011719 159.914062 " fill-opacity="1" fill-rule="nonzero"/><path fill="#8c52ff" d="M 120.363281 155.492188 C 121.539062 157.226562 123.710938 155.191406 124.667969 151.464844 C 125.265625 149.121094 125.367188 145.585938 123.710938 145.066406 C 120.757812 144.828125 118.695312 153.042969 120.363281 155.492188 " fill-opacity="1" fill-rule="nonzero"/><path fill="#8c52ff" d="M 139.878906 161.132812 C 140.128906 158.707031 139.269531 155.222656 136.582031 155.078125 C 132.8125 155.421875 131.347656 162.152344 133.597656 165.148438 C 135.769531 168.046875 139.410156 165.722656 139.878906 161.132812 " fill-opacity="1" fill-rule="nonzero"/><path fill="#8c52ff" d="M 146.777344 170.078125 C 146.816406 167.609375 145.480469 164.128906 142.40625 164.113281 C 138.089844 164.660156 137.199219 171.445312 140.125 174.441406 C 142.855469 177.242188 146.710938 174.710938 146.777344 170.078125 " fill-opacity="1" fill-rule="nonzero"/><path fill="#8c52ff" d="M 148.226562 183.484375 C 151.429688 186.152344 155.460938 183.441406 155.1875 178.804688 C 155.039062 176.308594 153.289062 172.851562 149.875 172.972656 C 145.167969 173.710938 144.753906 180.585938 148.226562 183.484375 " fill-opacity="1" fill-rule="nonzero"/><path fill="#8c52ff" d="M 158.769531 181.589844 C 154.085938 182.457031 153.757812 188.882812 157.214844 191.859375 C 160.796875 194.945312 165.433594 192.144531 164.851562 187.253906 C 164.554688 184.75 162.46875 181.332031 158.769531 181.589844 " fill-opacity="1" fill-rule="nonzero"/><path fill="#8c52ff" d="M 132.574219 145.960938 C 129.101562 146.132812 127.132812 153.257812 129.039062 156.042969 C 130.71875 158.492188 133.839844 156.289062 134.699219 152.042969 C 135.175781 149.679688 134.835938 146.226562 132.574219 145.960938 " fill-opacity="1" fill-rule="nonzero"/><path fill="#8c52ff" d="M 126.238281 146.828125 C 127.453125 148.84375 130.140625 146.792969 131.371094 142.902344 C 132.09375 140.617188 132.296875 137.234375 130.480469 136.863281 C 127.359375 136.851562 124.699219 144.273438 126.238281 146.828125 " fill-opacity="1" fill-rule="nonzero"/><path fill="#8c52ff" d="M 135.296875 193.847656 L 135.257812 193.914062 L 135.269531 193.917969 Z M 135.296875 193.847656 " fill-opacity="1" fill-rule="nonzero"/><path fill="#8c52ff" d="M 137.601562 203.257812 L 137.671875 203.320312 L 137.609375 203.257812 C 137.609375 203.257812 137.605469 203.257812 137.601562 203.257812 " fill-opacity="1" fill-rule="nonzero"/><path fill="#8c52ff" d="M 166.804688 234.050781 C 170.25 235.402344 172.636719 233.542969 171.28125 230.5625 C 170.480469 228.800781 167.921875 226.386719 164.738281 226.527344 C 164.40625 226.578125 163.992188 226.640625 163.597656 226.839844 C 160.9375 228.1875 162.855469 232.5 166.804688 234.050781 " fill-opacity="1" fill-rule="nonzero"/><path fill="#8c52ff" d="M 166.292969 240.996094 C 168.914062 241.503906 169.988281 239.933594 168.550781 237.703125 C 167.621094 236.261719 165.042969 233.988281 162.074219 234.023438 C 161.878906 234.035156 161.28125 234.078125 160.816406 234.410156 C 158.726562 235.917969 162.308594 240.226562 166.292969 240.996094 " fill-opacity="1" fill-rule="nonzero"/><path fill="#8c52ff" d="M 153.335938 160.078125 C 153.464844 157.765625 152.304688 154.546875 149.324219 154.632812 C 145.6875 155.015625 143.90625 160.878906 146.472656 163.996094 C 148.921875 166.964844 153.089844 164.585938 153.335938 160.078125 " fill-opacity="1" fill-rule="nonzero"/><path fill="#8c52ff" d="M 143.613281 146.085938 C 140.023438 146.554688 138.355469 152.640625 140.320312 155.347656 C 142.253906 158.011719 145.878906 155.921875 146.578125 151.738281 C 146.960938 149.425781 146.296875 146.144531 143.613281 146.085938 " fill-opacity="1" fill-rule="nonzero"/><path fill="#8c52ff" d="M 112.433594 150.722656 C 112.839844 150.503906 113.558594 148.269531 113.949219 146.957031 C 114.105469 146.4375 115.457031 141.851562 115.257812 140.734375 C 115.242188 140.699219 115.207031 140.65625 115.171875 140.644531 C 115.152344 140.652344 115.125 140.660156 115.109375 140.671875 C 114.179688 141.292969 111.730469 150.503906 112.433594 150.722656 " fill-opacity="1" fill-rule="nonzero"/><path fill="#8c52ff" d="M 175.148438 222.253906 C 174.511719 220.449219 172.289062 217.863281 168.78125 218.136719 C 168.515625 218.183594 168.164062 218.25 167.910156 218.339844 C 164.636719 219.503906 165.589844 224.238281 169.484375 226.132812 C 172.839844 227.761719 176.464844 225.964844 175.148438 222.253906 " fill-opacity="1" fill-rule="nonzero"/><path fill="#8c52ff" d="M 160.992188 250.308594 C 161.476562 250.230469 160.386719 249.300781 159.203125 248.460938 C 157.863281 247.503906 154.859375 245.582031 153.085938 245.144531 C 152.871094 245.117188 152.6875 245.089844 152.640625 245.210938 C 152.308594 246.050781 159.644531 250.527344 160.992188 250.308594 " fill-opacity="1" fill-rule="nonzero"/><path fill="#8c52ff" d="M 166.6875 246.5625 C 168.53125 246.691406 168.78125 245.554688 167.28125 243.863281 C 166.300781 242.753906 163.710938 240.632812 160.941406 240.550781 C 160.570312 240.574219 160.21875 240.597656 159.929688 240.816406 C 158.238281 242.082031 163.226562 246.324219 166.6875 246.5625 " fill-opacity="1" fill-rule="nonzero"/><path fill="#8c52ff" d="M 135.96875 146.625 C 137.316406 148.605469 140.457031 147.089844 141.492188 143.101562 C 141.875 141.640625 142.292969 137.804688 139.699219 137.617188 C 136.421875 137.925781 134.320312 144.195312 135.96875 146.625 " fill-opacity="1" fill-rule="nonzero"/><path fill="#8c52ff" d="M 118.15625 139.703125 C 118.847656 138.007812 120.03125 134.582031 119.574219 133.78125 C 119.550781 133.765625 119.519531 133.734375 119.496094 133.726562 C 118.4375 133.363281 115.089844 141.75 115.722656 143.171875 C 116.03125 143.867188 117.054688 142.410156 118.15625 139.703125 " fill-opacity="1" fill-rule="nonzero"/><path fill="#8c52ff" d="M 156.691406 163.191406 C 152.261719 164.003906 151.855469 169.957031 154.3125 172.515625 C 156.949219 175.265625 161.609375 173.332031 161.488281 168.449219 C 161.410156 165.242188 159.257812 162.882812 156.691406 163.191406 " fill-opacity="1" fill-rule="nonzero"/><path fill="#8c52ff" d="M 174.972656 195.378906 C 174.59375 193.195312 172.664062 190.082031 168.910156 190.453125 C 164.464844 191.15625 164.394531 197.304688 167.835938 199.863281 C 171.128906 202.308594 175.800781 200.121094 174.972656 195.378906 " fill-opacity="1" fill-rule="nonzero"/><path fill="#8c52ff" d="M 173.449219 217.070312 C 177.078125 219.34375 181.09375 216.992188 180.160156 213.140625 C 179.503906 210.433594 176.585938 208.40625 173.914062 208.804688 C 173.777344 208.832031 173.59375 208.859375 173.460938 208.898438 C 169.78125 209.878906 169.773438 214.765625 173.449219 217.070312 " fill-opacity="1" fill-rule="nonzero"/><path fill="#8c52ff" d="M 130.148438 128.40625 C 127.832031 128.261719 124.675781 135.148438 125.550781 137.167969 C 126.1875 138.632812 128.28125 137.003906 129.703125 133.941406 C 130.570312 132.066406 131.457031 128.90625 130.148438 128.40625 " fill-opacity="1" fill-rule="nonzero"/><path fill="#8c52ff" d="M 168.453125 251.027344 C 169.355469 250.953125 169.050781 250.113281 167.710938 248.992188 C 165.890625 247.464844 162.957031 246.070312 161.433594 246.007812 C 161.152344 246.011719 160.890625 246.019531 160.71875 246.179688 C 159.574219 247.257812 165.933594 251.246094 168.453125 251.027344 " fill-opacity="1" fill-rule="nonzero"/><path fill="#8c52ff" d="M 137.675781 129.207031 C 135.078125 129.375 132.15625 135.054688 133.332031 137.648438 C 134.273438 139.714844 137.109375 137.792969 138.394531 134.222656 C 139.09375 132.277344 139.332031 129.4375 137.675781 129.207031 " fill-opacity="1" fill-rule="nonzero"/><path fill="#8c52ff" d="M 120.585938 135.625 C 120.929688 136.535156 122.4375 134.921875 123.816406 132.175781 C 124.734375 130.34375 125.816406 127.371094 125.21875 126.816406 C 125.21875 126.816406 125.210938 126.8125 125.210938 126.808594 C 123.820312 126.273438 119.886719 133.769531 120.585938 135.625 " fill-opacity="1" fill-rule="nonzero"/><path fill="#8c52ff" d="M 165.480469 171.582031 C 161.5 172.207031 160.359375 178.019531 163.660156 180.867188 C 166.898438 183.660156 171.289062 181.019531 170.890625 176.523438 C 170.6875 174.277344 168.878906 171.257812 165.480469 171.582031 " fill-opacity="1" fill-rule="nonzero"/><path fill="#8c52ff" d="M 182.011719 236.347656 C 181.175781 234.339844 178.222656 232.699219 175.933594 232.976562 C 175.722656 233.015625 175.441406 233.066406 175.242188 233.136719 C 172.699219 234.042969 173.335938 237.46875 177.226562 239.117188 C 180.699219 240.589844 183.007812 238.753906 182.011719 236.347656 " fill-opacity="1" fill-rule="nonzero"/><path fill="#8c52ff" d="M 179.214844 242.941406 C 178.347656 241.617188 175.777344 239.851562 173.195312 239.96875 C 172.734375 240.019531 172.351562 240.148438 172.066406 240.355469 C 170.246094 241.675781 173.035156 244.898438 176.65625 245.65625 C 179.4375 246.238281 180.332031 244.648438 179.214844 242.941406 " fill-opacity="1" fill-rule="nonzero"/><path fill="#8c52ff" d="M 156.421875 145.226562 C 153.421875 145.621094 151.25 150.71875 153.632812 153.640625 C 155.835938 156.339844 159.675781 154.222656 160.054688 150.101562 C 160.25 147.960938 159.097656 145.078125 156.421875 145.226562 " fill-opacity="1" fill-rule="nonzero"/><path fill="#8c52ff" d="M 153.515625 142.007812 C 153.984375 139.324219 152.707031 137.027344 150.832031 137.183594 C 147.695312 137.707031 145.71875 142.941406 147.675781 145.535156 C 149.546875 148.015625 152.910156 145.484375 153.515625 142.007812 " fill-opacity="1" fill-rule="nonzero"/><path fill="#8c52ff" d="M 120.625 129.976562 C 121.011719 129.253906 122.949219 125.617188 122.878906 124.710938 C 122.867188 124.691406 122.859375 124.667969 122.84375 124.65625 C 122.238281 124.207031 118.167969 131.929688 118.488281 132.921875 C 118.617188 133.308594 119.433594 132.183594 120.625 129.976562 " fill-opacity="1" fill-rule="nonzero"/><path fill="#8c52ff" d="M 143.34375 137.148438 C 144.527344 139.210938 147.699219 137.640625 148.679688 133.746094 C 149.125 131.976562 149.054688 129.328125 147.042969 129.292969 C 144.128906 129.683594 142.058594 134.914062 143.34375 137.148438 " fill-opacity="1" fill-rule="nonzero"/><path fill="#8c52ff" d="M 163.671875 153.320312 C 160.160156 153.871094 158.753906 159.328125 161.453125 161.90625 C 164.078125 164.410156 168.144531 161.921875 168.050781 157.875 C 168.007812 155.957031 166.78125 153.027344 163.671875 153.320312 " fill-opacity="1" fill-rule="nonzero"/><path fill="#8c52ff" d="M 185.84375 228.3125 C 185.007812 226.15625 182.40625 224.683594 180.039062 225.035156 C 179.808594 225.082031 179.496094 225.144531 179.273438 225.226562 C 176.308594 226.289062 176.960938 230.148438 180.382812 231.777344 C 183.8125 233.410156 187.03125 231.371094 185.84375 228.3125 " fill-opacity="1" fill-rule="nonzero"/><path fill="#8c52ff" d="M 177.851562 248.523438 C 176.390625 247.019531 173.777344 245.871094 172.023438 245.964844 C 171.730469 245.996094 171.242188 246.050781 170.96875 246.339844 C 169.800781 247.570312 174.152344 250.652344 177.175781 250.738281 C 178.859375 250.785156 179.140625 249.851562 177.851562 248.523438 " fill-opacity="1" fill-rule="nonzero"/><path fill="#8c52ff" d="M 137.492188 121.160156 C 135.5625 120.980469 131.980469 126.710938 132.695312 128.820312 C 133.199219 130.300781 135.421875 129.097656 137.089844 125.789062 C 137.832031 124.316406 138.871094 121.460938 137.492188 121.160156 " fill-opacity="1" fill-rule="nonzero"/><path fill="#8c52ff" d="M 171.234375 254.410156 C 171.660156 254.320312 171.019531 253.753906 169.515625 252.890625 C 169.148438 252.679688 165.84375 250.804688 163.753906 250.507812 C 163.535156 250.496094 163.328125 250.484375 163.257812 250.589844 C 162.785156 251.296875 169.867188 254.6875 171.234375 254.410156 " fill-opacity="1" fill-rule="nonzero"/><path fill="#8c52ff" d="M 190.929688 219.691406 C 190.511719 218.003906 188.644531 215.660156 185.207031 216.113281 C 185.207031 216.113281 185.203125 216.113281 185.203125 216.113281 C 185.203125 216.113281 185.199219 216.113281 185.199219 216.113281 C 185.199219 216.113281 185.199219 216.117188 185.199219 216.117188 C 185.195312 216.117188 185.195312 216.117188 185.195312 216.117188 C 184.667969 216.238281 183.574219 216.488281 182.832031 217.492188 C 181.058594 219.890625 183.457031 224.476562 188.085938 223.867188 C 188.085938 223.867188 188.085938 223.867188 188.089844 223.867188 C 188.089844 223.863281 188.089844 223.863281 188.089844 223.863281 C 188.089844 223.863281 188.089844 223.863281 188.09375 223.863281 C 188.09375 223.863281 188.09375 223.863281 188.097656 223.863281 C 191.648438 223.046875 191.011719 220.03125 190.929688 219.691406 " fill-opacity="1" fill-rule="nonzero"/><path fill="#8c52ff" d="M 185.835938 203.117188 C 185.496094 201.179688 183.582031 198.28125 179.882812 198.730469 C 175.574219 199.738281 175.597656 205.011719 178.960938 207.222656 C 182.40625 209.484375 186.519531 207.03125 185.835938 203.117188 " fill-opacity="1" fill-rule="nonzero"/><path fill="#8c52ff" d="M 175.488281 179.894531 C 171.507812 180.628906 170.667969 186.347656 174.167969 188.890625 C 177.519531 191.332031 181.734375 188.582031 181.105469 184.371094 C 180.738281 181.90625 178.644531 179.5 175.488281 179.894531 " fill-opacity="1" fill-rule="nonzero"/><path fill="#8c52ff" d="M 116.371094 136.664062 C 116.953125 135.269531 118.324219 131.941406 118.496094 131.113281 C 118.5 131.089844 118.5 131.0625 118.5 131.042969 C 118.484375 131.042969 118.464844 131.042969 118.453125 131.042969 C 117.878906 131.75 114.664062 139.351562 114.933594 139.824219 C 115.019531 139.703125 115.21875 139.425781 116.371094 136.664062 " fill-opacity="1" fill-rule="nonzero"/><path fill="#8c52ff" d="M 162.863281 251.929688 C 159.074219 249.964844 157.992188 249.488281 157.429688 249.285156 C 157.425781 249.285156 157.425781 249.285156 157.425781 249.285156 C 157.371094 249.269531 157.296875 249.246094 157.242188 249.238281 C 157.238281 249.25 157.234375 249.269531 157.230469 249.28125 C 158.019531 250.027344 164.644531 253.230469 165.429688 253.351562 C 165.398438 253.285156 165.375 253.234375 162.863281 251.929688 " fill-opacity="1" fill-rule="nonzero"/><path fill="#8c52ff" d="M 126.789062 127.851562 C 127.066406 128.835938 128.613281 127.867188 130.382812 124.898438 C 130.484375 124.726562 132.867188 120.707031 131.839844 120.070312 C 130.070312 119.792969 126.339844 126.273438 126.789062 127.851562 " fill-opacity="1" fill-rule="nonzero"/><path fill="#8c52ff" d="M 178.542969 254.621094 C 178.542969 254.621094 178.546875 254.621094 178.546875 254.621094 C 178.550781 254.621094 178.550781 254.621094 178.550781 254.621094 C 178.609375 254.617188 178.691406 254.617188 178.75 254.609375 C 179.597656 254.511719 179.367188 253.890625 178.164062 253.03125 C 176.457031 251.8125 173.898438 250.835938 172.457031 250.851562 C 172.199219 250.867188 171.933594 250.886719 171.765625 251.023438 C 170.84375 251.785156 175.519531 254.5625 178.542969 254.621094 " fill-opacity="1" fill-rule="nonzero"/><path fill="#8c52ff" d="M 145.152344 121.511719 C 144.863281 121.542969 144.425781 121.585938 143.6875 122.1875 C 141.039062 124.335938 139.550781 129.441406 142.054688 129.621094 C 142.058594 129.621094 142.058594 129.621094 142.058594 129.621094 C 144.128906 129.410156 145.480469 126.34375 145.628906 125.992188 C 146.539062 123.828125 146.570312 121.511719 145.152344 121.511719 " fill-opacity="1" fill-rule="nonzero"/><path fill="#8c52ff" d="M 128.53125 118.3125 C 127.875 118.160156 122.921875 124.714844 123.585938 126.058594 C 123.585938 126.058594 123.585938 126.058594 123.589844 126.058594 C 123.589844 126.058594 123.589844 126.058594 123.589844 126.0625 C 124.164062 126.394531 126.160156 123.359375 126.386719 123.011719 C 127.101562 121.917969 128.890625 118.945312 128.59375 118.347656 C 128.578125 118.335938 128.554688 118.316406 128.53125 118.3125 " fill-opacity="1" fill-rule="nonzero"/><path fill="#8c52ff" d="M 172.394531 161.328125 C 168.125 162.332031 168.042969 167.675781 170.570312 169.8125 C 173.195312 172.035156 177.589844 170.03125 177.296875 165.773438 C 177.101562 162.886719 174.902344 160.894531 172.394531 161.328125 " fill-opacity="1" fill-rule="nonzero"/><path fill="#8c52ff" d="M 182.3125 169.191406 C 178.769531 170.113281 177.746094 174.664062 180.519531 177.175781 C 183.710938 180.066406 187.835938 177.191406 187.507812 173.421875 C 187.332031 171.371094 185.425781 168.757812 182.3125 169.191406 " fill-opacity="1" fill-rule="nonzero"/><path fill="#8c52ff" d="M 191.992188 192.195312 C 191.628906 189.503906 188.894531 187.433594 186.359375 187.929688 C 182.71875 188.890625 181.851562 193.632812 184.863281 196.117188 C 188.410156 199.042969 192.515625 196.089844 191.992188 192.195312 " fill-opacity="1" fill-rule="nonzero"/><path fill="#8c52ff" d="M 196.730469 209.890625 C 196.289062 207.558594 193.601562 205.808594 191.195312 206.285156 C 187.621094 207.21875 186.9375 211.445312 190.011719 213.578125 C 193.527344 216.015625 197.367188 213.28125 196.730469 209.890625 " fill-opacity="1" fill-rule="nonzero"/><path fill="#8c52ff" d="M 134.027344 120.28125 C 134.203125 121.542969 136.246094 119.894531 137.796875 117.65625 C 138.910156 116.054688 140.042969 113.667969 139.273438 113.359375 C 137.640625 113.300781 133.769531 118.414062 134.027344 120.28125 " fill-opacity="1" fill-rule="nonzero"/><path fill="#8c52ff" d="M 192.25 241.167969 C 191.59375 239.546875 188.980469 238.246094 186.976562 238.542969 C 186.789062 238.578125 186.539062 238.632812 186.359375 238.699219 C 184.234375 239.472656 184.519531 242.105469 187.597656 243.445312 C 190.742188 244.816406 193.089844 243.234375 192.25 241.167969 " fill-opacity="1" fill-rule="nonzero"/><path fill="#8c52ff" d="M 167.75 253.941406 C 167.695312 253.933594 167.621094 253.925781 167.5625 253.925781 C 167.554688 253.9375 167.546875 253.957031 167.539062 253.972656 C 168.210938 254.632812 174.058594 256.679688 175.386719 256.878906 C 175.402344 256.871094 175.417969 256.855469 175.429688 256.84375 C 175.207031 256.699219 174.429688 256.367188 173.121094 255.84375 C 172.710938 255.679688 169.0625 254.238281 167.75 253.941406 " fill-opacity="1" fill-rule="nonzero"/><path fill="#8c52ff" d="M 140.535156 120.800781 C 140.972656 122.167969 143.128906 120.742188 144.648438 118.070312 C 145.476562 116.617188 146.347656 114.238281 145.167969 114.035156 C 143.238281 114.171875 139.949219 118.976562 140.535156 120.800781 " fill-opacity="1" fill-rule="nonzero"/><path fill="#8c52ff" d="M 181.484375 257.402344 C 181.8125 257.214844 180.421875 256.546875 179.988281 256.34375 C 178.316406 255.574219 175.777344 254.707031 174.59375 254.65625 C 174.40625 254.660156 174.210938 254.660156 174.152344 254.757812 C 173.734375 255.449219 180.585938 257.921875 181.484375 257.402344 " fill-opacity="1" fill-rule="nonzero"/><path fill="#8c52ff" d="M 163.402344 136 C 160.441406 136.660156 158.976562 141.199219 160.992188 143.472656 C 162.957031 145.6875 166.390625 143.636719 166.644531 140.097656 C 166.820312 137.683594 165.277344 135.730469 163.402344 136 " fill-opacity="1" fill-rule="nonzero"/><path fill="#8c52ff" d="M 157.933594 128.515625 C 155.289062 129.042969 153.511719 133.371094 155.007812 135.636719 C 156.480469 137.875 159.6875 136.023438 160.289062 132.59375 C 160.695312 130.273438 159.574219 128.328125 157.933594 128.515625 " fill-opacity="1" fill-rule="nonzero"/><path fill="#8c52ff" d="M 186.730469 249.4375 C 189.328125 249.980469 190.355469 248.675781 189.378906 247.230469 C 188.441406 245.847656 185.953125 244.78125 184.164062 244.996094 C 183.824219 245.054688 183.5 245.113281 183.171875 245.339844 C 181.59375 246.421875 183.65625 248.796875 186.730469 249.4375 " fill-opacity="1" fill-rule="nonzero"/><path fill="#8c52ff" d="M 129.925781 118.949219 C 130.039062 119.636719 131.417969 118.507812 133.058594 116.378906 C 133.085938 116.34375 135.84375 112.753906 135.324219 112.175781 C 134.234375 111.875 129.695312 117.574219 129.925781 118.949219 " fill-opacity="1" fill-rule="nonzero"/><path fill="#8c52ff" d="M 187.289062 253.972656 C 188.753906 253.953125 189.023438 253.207031 187.929688 252.195312 C 187.0625 251.394531 185.007812 250.246094 182.902344 250.367188 C 182.648438 250.394531 182.1875 250.472656 181.949219 250.707031 C 180.90625 251.75 184.597656 254.007812 187.289062 253.972656 " fill-opacity="1" fill-rule="nonzero"/><path fill="#8c52ff" d="M 154.273438 121.214844 C 151.980469 121.445312 149.765625 126.035156 150.980469 128.039062 C 151.980469 129.683594 154.746094 128.292969 155.640625 125.070312 C 156.078125 123.5 156.074219 121.175781 154.273438 121.214844 " fill-opacity="1" fill-rule="nonzero"/><path fill="#8c52ff" d="M 170.5625 143.597656 C 167.472656 144.148438 166.21875 148.863281 168.554688 151.125 C 170.683594 153.179688 174.570312 151.371094 174.464844 147.523438 C 174.417969 145.761719 173.335938 143.257812 170.5625 143.597656 " fill-opacity="1" fill-rule="nonzero"/><path fill="#8c52ff" d="M 196.230469 233.738281 C 195.792969 232.503906 194.023438 230.691406 191.136719 231.082031 C 190.933594 231.121094 190.621094 231.191406 190.3125 231.324219 C 187.886719 232.34375 188.359375 235.398438 191.140625 236.679688 C 194.085938 238.035156 197.128906 236.277344 196.230469 233.738281 " fill-opacity="1" fill-rule="nonzero"/><path fill="#8c52ff" d="M 124.820312 120.691406 C 125.992188 118.988281 127.425781 116.824219 127.621094 116.1875 C 127.609375 116.167969 127.601562 116.140625 127.59375 116.121094 C 126.90625 116.351562 122.78125 122.558594 122.949219 123.105469 C 123.023438 123.078125 123.230469 123.007812 124.820312 120.691406 " fill-opacity="1" fill-rule="nonzero"/><path fill="#8c52ff" d="M 130.613281 114.519531 C 130.644531 114.484375 133.460938 111.089844 133.464844 110.453125 C 133.457031 110.441406 133.445312 110.429688 133.4375 110.417969 C 132.636719 110.382812 127.824219 116.335938 128.234375 116.855469 C 128.585938 116.882812 129.875 115.402344 130.613281 114.519531 " fill-opacity="1" fill-rule="nonzero"/><path fill="#8c52ff" d="M 178.492188 257.410156 C 178.308594 257.398438 178.308594 257.398438 178.257812 257.445312 C 178.695312 257.875 184.863281 259.398438 185.433594 259.21875 C 185.359375 259.175781 185.234375 259.105469 183.488281 258.621094 C 180.976562 257.925781 179.296875 257.515625 178.492188 257.410156 " fill-opacity="1" fill-rule="nonzero"/><path fill="#8c52ff" d="M 193.125 177 C 189.742188 177.785156 188.871094 182.34375 191.667969 184.621094 C 194.667969 187.066406 198.785156 184.640625 198.238281 180.746094 C 197.976562 178.875 196.214844 176.472656 193.125 177 " fill-opacity="1" fill-rule="nonzero"/><path fill="#8c52ff" d="M 198.738281 229.085938 C 198.738281 229.085938 198.738281 229.085938 198.742188 229.085938 C 198.742188 229.082031 198.746094 229.082031 198.746094 229.082031 C 198.746094 229.082031 198.746094 229.082031 198.75 229.082031 C 198.75 229.082031 198.753906 229.082031 198.753906 229.082031 C 201.914062 228.292969 201.417969 225.75 201.351562 225.460938 C 201.023438 224.058594 199.429688 222.140625 196.382812 222.621094 C 195.183594 222.867188 194.539062 223.503906 194.261719 223.859375 C 192.515625 226.109375 194.941406 229.664062 198.734375 229.085938 C 198.734375 229.085938 198.738281 229.085938 198.738281 229.085938 " fill-opacity="1" fill-rule="nonzero"/><path fill="#8c52ff" d="M 152.535156 114.082031 C 150.679688 114.210938 148.125 118.359375 148.742188 120.25 C 149.257812 121.824219 151.625 120.707031 152.914062 117.695312 C 153.5 116.320312 153.917969 114.125 152.535156 114.082031 " fill-opacity="1" fill-rule="nonzero"/><path fill="#8c52ff" d="M 137.328125 112.0625 C 137.304688 112.855469 138.847656 111.78125 140.625 109.773438 C 141.539062 108.738281 143.285156 106.492188 142.839844 106.160156 C 141.695312 106.042969 137.371094 110.679688 137.328125 112.0625 " fill-opacity="1" fill-rule="nonzero"/><path fill="#8c52ff" d="M 188.804688 257.179688 C 189.335938 257.019531 189.015625 256.539062 187.988281 255.957031 C 187.121094 255.46875 185.019531 254.550781 183.253906 254.589844 C 183.253906 254.589844 183.25 254.589844 183.25 254.589844 C 183.246094 254.589844 183.246094 254.59375 183.246094 254.59375 C 183.246094 254.59375 183.242188 254.59375 183.242188 254.59375 C 183.03125 254.613281 182.679688 254.648438 182.5625 254.828125 C 181.96875 255.71875 187.160156 257.679688 188.804688 257.179688 " fill-opacity="1" fill-rule="nonzero"/><path fill="#8c52ff" d="M 179.183594 151.140625 C 179.179688 151.140625 179.179688 151.140625 179.179688 151.140625 C 179.179688 151.140625 179.179688 151.140625 179.175781 151.140625 C 179.175781 151.144531 179.171875 151.144531 179.171875 151.144531 C 179.171875 151.144531 179.171875 151.144531 179.167969 151.144531 C 179.167969 151.144531 179.164062 151.144531 179.164062 151.144531 C 179.164062 151.144531 179.164062 151.144531 179.160156 151.144531 C 175.382812 152.164062 175.414062 156.964844 177.707031 158.722656 C 180.316406 160.71875 183.882812 158.398438 183.578125 154.902344 C 183.429688 153.222656 182.105469 150.710938 179.183594 151.140625 " fill-opacity="1" fill-rule="nonzero"/><path fill="#8c52ff" d="M 174.335938 256.699219 L 174.578125 256.769531 C 174.398438 256.714844 174.214844 256.660156 174.039062 256.605469 L 174.335938 256.699219 " fill-opacity="1" fill-rule="nonzero"/><path fill="#8c52ff" d="M 202.902344 199.226562 C 202.453125 196.84375 200.089844 195.269531 197.738281 195.789062 C 193.933594 196.855469 193.765625 201.402344 196.625 203.25 C 199.691406 205.234375 203.5625 202.75 202.902344 199.226562 " fill-opacity="1" fill-rule="nonzero"/><path fill="#8c52ff" d="M 142.035156 112.953125 C 142.230469 113.898438 144.042969 112.664062 145.703125 110.460938 C 146.488281 109.414062 147.855469 107.1875 147.0625 106.972656 C 145.8125 106.863281 141.703125 111.320312 142.035156 112.953125 " fill-opacity="1" fill-rule="nonzero"/><path fill="#8c52ff" d="M 207.296875 216.222656 C 207.085938 214.425781 205.046875 212.730469 202.457031 213.171875 C 199.460938 214.003906 198.609375 217.296875 200.90625 219.140625 C 203.816406 221.480469 207.640625 219.203125 207.296875 216.222656 " fill-opacity="1" fill-rule="nonzero"/><path fill="#8c52ff" d="M 191.1875 259.367188 C 191.4375 259.226562 190.3125 258.820312 189.960938 258.699219 C 188.527344 258.203125 186.246094 257.660156 185.265625 257.671875 C 185.125 257.679688 184.882812 257.691406 184.882812 257.804688 C 184.878906 258.375 190.476562 259.757812 191.1875 259.367188 " fill-opacity="1" fill-rule="nonzero"/><path fill="#8c52ff" d="M 189.054688 158.5625 C 189.050781 158.5625 189.050781 158.5625 189.050781 158.5625 C 189.050781 158.5625 189.046875 158.566406 189.046875 158.566406 C 189.042969 158.566406 189.042969 158.566406 189.042969 158.566406 C 189.042969 158.566406 189.042969 158.566406 189.039062 158.566406 C 189.039062 158.566406 189.035156 158.566406 189.035156 158.566406 C 185.734375 159.527344 185.050781 164.042969 187.902344 166.003906 C 190.894531 168.058594 194.164062 165.226562 193.695312 162.019531 C 193.441406 160.300781 191.6875 158.144531 189.054688 158.5625 " fill-opacity="1" fill-rule="nonzero"/><path fill="#8c52ff" d="M 148.5625 112.976562 C 148.886719 114.070312 150.804688 112.792969 152.167969 110.582031 C 152.796875 109.554688 153.765625 107.394531 152.734375 107.265625 C 151.046875 107.476562 148.121094 111.476562 148.5625 112.976562 " fill-opacity="1" fill-rule="nonzero"/><path fill="#8c52ff" d="M 134.835938 110.589844 C 135.242188 110.757812 137.109375 108.878906 137.675781 108.296875 C 137.789062 108.179688 140.464844 105.414062 140.335938 104.9375 C 140.320312 104.929688 140.304688 104.917969 140.289062 104.914062 C 139.738281 104.824219 134.453125 109.640625 134.835938 110.589844 " fill-opacity="1" fill-rule="nonzero"/><path fill="#8c52ff" d="M 201.675781 245.101562 C 201.242188 244.164062 199.648438 242.984375 197.460938 243.28125 C 197.152344 243.339844 196.84375 243.445312 196.609375 243.570312 C 194.980469 244.445312 195.691406 246.414062 197.925781 247.203125 C 200.304688 248.042969 202.476562 246.824219 201.675781 245.101562 " fill-opacity="1" fill-rule="nonzero"/><path fill="#8c52ff" d="M 168.050781 133.414062 C 169.78125 135.289062 172.730469 133.355469 172.761719 130.324219 C 172.777344 128.863281 171.917969 126.90625 169.960938 127.132812 C 167.5625 127.578125 166.347656 131.570312 168.050781 133.414062 " fill-opacity="1" fill-rule="nonzero"/><path fill="#8c52ff" d="M 196.351562 252.441406 C 198.390625 252.808594 199.613281 251.933594 198.78125 250.707031 C 198.054688 249.636719 196.082031 248.894531 194.558594 249.117188 C 194.308594 249.164062 193.898438 249.246094 193.585938 249.492188 C 192.488281 250.367188 194.039062 252.019531 196.351562 252.441406 " fill-opacity="1" fill-rule="nonzero"/><path fill="#8c52ff" d="M 164.59375 120.265625 C 162.183594 120.796875 161.039062 124.820312 162.382812 126.355469 C 163.621094 127.773438 166.222656 126.355469 166.605469 123.453125 C 166.828125 121.75 166.125 120.046875 164.59375 120.265625 " fill-opacity="1" fill-rule="nonzero"/><path fill="#8c52ff" d="M 205.847656 238.320312 C 205.507812 237.316406 204.125 235.964844 201.710938 236.359375 C 201.597656 236.382812 201.347656 236.449219 201.34375 236.449219 C 198.886719 237.199219 199.164062 239.6875 201.203125 240.746094 C 203.683594 242.039062 206.589844 240.519531 205.847656 238.320312 " fill-opacity="1" fill-rule="nonzero"/><path fill="#8c52ff" d="M 161.078125 113.554688 C 159.226562 113.789062 157.402344 117.566406 158.371094 119.164062 C 159.175781 120.5 161.441406 119.347656 162.1875 116.714844 C 162.5625 115.402344 162.574219 113.472656 161.078125 113.554688 " fill-opacity="1" fill-rule="nonzero"/><path fill="#8c52ff" d="M 177.027344 134.164062 C 173.945312 134.96875 173.777344 139.054688 175.554688 140.589844 C 177.398438 142.175781 180.558594 140.585938 180.410156 137.433594 C 180.3125 135.285156 178.792969 133.816406 177.027344 134.164062 " fill-opacity="1" fill-rule="nonzero"/><path fill="#8c52ff" d="M 196.691406 256.320312 C 197.851562 256.246094 198.082031 255.707031 197.25 255.007812 C 196.378906 254.277344 194.621094 253.625 193.183594 253.800781 C 192.964844 253.835938 192.59375 253.894531 192.386719 254.089844 C 191.53125 254.894531 194.546875 256.457031 196.691406 256.320312 " fill-opacity="1" fill-rule="nonzero"/><path fill="#8c52ff" d="M 197.890625 258.882812 C 198.308594 258.757812 198.085938 258.457031 197.3125 258.101562 C 196.492188 257.71875 194.773438 257.183594 193.410156 257.269531 C 193.203125 257.292969 192.9375 257.34375 192.851562 257.46875 C 192.449219 258.085938 196.640625 259.261719 197.890625 258.882812 " fill-opacity="1" fill-rule="nonzero"/><path fill="#8c52ff" d="M 150.3125 105.886719 C 150.460938 106.558594 151.96875 105.558594 153.417969 103.828125 C 154.558594 102.46875 155.394531 100.980469 154.824219 100.933594 C 153.488281 101.050781 150.070312 104.800781 150.3125 105.886719 " fill-opacity="1" fill-rule="nonzero"/><g clip-path="url(#1f7e37b6ce)"><path fill="#8c52ff" d="M 189.078125 259.644531 C 188.917969 259.640625 188.917969 259.640625 188.878906 259.675781 C 189.289062 259.933594 194.59375 260.636719 194.980469 260.484375 C 194.84375 260.449219 194.660156 260.421875 193.25 260.207031 C 191.023438 259.867188 189.796875 259.679688 189.078125 259.644531 " fill-opacity="1" fill-rule="nonzero"/></g><path fill="#8c52ff" d="M 159.742188 109.996094 C 160.390625 108.550781 160.453125 106.996094 159.507812 107.066406 C 157.835938 107.375 155.75 110.863281 156.40625 112.253906 C 156.941406 113.382812 158.777344 112.136719 159.742188 109.996094 " fill-opacity="1" fill-rule="nonzero"/><path fill="#8c52ff" d="M 142.449219 104.40625 C 142.367188 104.867188 143.605469 104.0625 145.332031 102.539062 C 145.363281 102.511719 148.214844 99.96875 148.007812 99.628906 C 147.242188 99.492188 142.617188 103.460938 142.449219 104.40625 " fill-opacity="1" fill-rule="nonzero"/><path fill="#8c52ff" d="M 204.488281 184.695312 C 200.894531 185.78125 201.039062 189.933594 203.160156 191.640625 C 205.640625 193.636719 209.734375 191.804688 209.203125 188.074219 C 208.863281 185.65625 206.746094 184.144531 204.488281 184.695312 " fill-opacity="1" fill-rule="nonzero"/><path fill="#8c52ff" d="M 150.726562 100.492188 C 149.621094 100.472656 145.417969 104.464844 145.496094 105.460938 C 145.539062 105.980469 146.777344 105.328125 148.703125 103.367188 C 148.808594 103.261719 151.265625 100.757812 150.726562 100.492188 " fill-opacity="1" fill-rule="nonzero"/><path fill="#8c52ff" d="M 209.085938 203.007812 C 205.855469 203.828125 205.472656 207.648438 207.757812 209.265625 C 210.3125 211.074219 214.007812 208.921875 213.574219 205.875 C 213.371094 204.460938 211.972656 202.429688 209.085938 203.007812 " fill-opacity="1" fill-rule="nonzero"/><path fill="#8c52ff" d="M 133.550781 108.355469 C 133.558594 108.339844 133.558594 108.3125 133.558594 108.296875 C 133.039062 108.527344 128.859375 113.476562 128.847656 113.867188 C 128.96875 113.796875 129.277344 113.464844 130.648438 111.867188 C 132.890625 109.253906 133.371094 108.652344 133.550781 108.355469 " fill-opacity="1" fill-rule="nonzero"/><path fill="#8c52ff" d="M 199.824219 166.035156 C 196.203125 167.136719 196.503906 171.457031 198.835938 173.007812 C 201.535156 174.800781 204.898438 172.515625 204.375 169.246094 C 204.011719 166.992188 201.929688 165.519531 199.824219 166.035156 " fill-opacity="1" fill-rule="nonzero"/><path fill="#8c52ff" d="M 185.582031 141.160156 C 182.554688 142.027344 182.296875 146.035156 184.507812 147.636719 C 186.816406 149.308594 189.835938 147.175781 189.40625 144.171875 C 189.207031 142.796875 187.992188 140.761719 185.582031 141.160156 " fill-opacity="1" fill-rule="nonzero"/><path fill="#8c52ff" d="M 211.109375 230.542969 C 210.832031 229.175781 209.316406 227.945312 207.046875 228.359375 C 204.261719 229.003906 203.964844 231.773438 205.875 233.09375 C 208.1875 234.6875 211.613281 233.019531 211.109375 230.542969 " fill-opacity="1" fill-rule="nonzero"/><path fill="#8c52ff" d="M 136.59375 106.4375 C 136.621094 106.410156 139.378906 103.753906 139.5625 103.289062 C 139.5625 103.285156 139.5625 103.285156 139.5625 103.285156 C 139.5625 103.285156 139.5625 103.285156 139.554688 103.261719 C 138.960938 103.238281 134.257812 107.824219 134.367188 108.316406 C 134.578125 108.335938 135.851562 107.148438 136.59375 106.4375 " fill-opacity="1" fill-rule="nonzero"/><path fill="#8c52ff" d="M 194.601562 154.472656 C 197.199219 156.171875 199.898438 153.726562 199.410156 151.015625 C 199.15625 149.605469 197.699219 147.71875 195.382812 148.160156 C 192.863281 148.800781 191.960938 152.742188 194.601562 154.472656 " fill-opacity="1" fill-rule="nonzero"/><path fill="#8c52ff" d="M 217.136719 221.648438 C 216.949219 220.226562 215.40625 218.957031 213.238281 219.390625 C 210.902344 219.980469 209.707031 222.808594 211.804688 224.378906 C 214.21875 226.183594 217.457031 224.085938 217.136719 221.648438 " fill-opacity="1" fill-rule="nonzero"/><g clip-path="url(#e06dd75562)"><path fill="#8c52ff" d="M 195.375 259.5625 C 195.144531 259.585938 195.078125 259.605469 195.058594 259.664062 C 195.273438 260.089844 199.550781 260.554688 200.097656 260.347656 C 200.101562 260.335938 200.101562 260.320312 200.105469 260.308594 C 200.058594 260.277344 199.941406 260.191406 198.898438 259.984375 C 198.507812 259.90625 196.507812 259.523438 195.375 259.5625 " fill-opacity="1" fill-rule="nonzero"/></g><path fill="#8c52ff" d="M 156.386719 105.464844 C 156.535156 106.335938 157.992188 105.558594 159.28125 103.578125 C 160.101562 102.320312 160.5625 100.976562 159.878906 100.996094 C 158.636719 101.183594 156.191406 104.320312 156.386719 105.464844 " fill-opacity="1" fill-rule="nonzero"/><path fill="#8c52ff" d="M 143.636719 101.191406 C 144.699219 100.332031 146.496094 98.839844 146.574219 98.507812 C 146.25 98.214844 141.363281 102.160156 141.292969 102.773438 C 141.335938 102.816406 141.464844 102.945312 143.636719 101.191406 " fill-opacity="1" fill-rule="nonzero"/><path fill="#8c52ff" d="M 174.550781 123.753906 C 175.871094 125.019531 178.191406 123.761719 178.121094 121.25 C 178.097656 120.269531 177.578125 118.484375 175.808594 118.738281 C 173.777344 119.167969 173.226562 122.480469 174.550781 123.753906 " fill-opacity="1" fill-rule="nonzero"/><path fill="#8c52ff" d="M 207.027344 247.210938 C 206.894531 247.242188 206.722656 247.285156 206.59375 247.332031 C 205.007812 247.902344 205.359375 249.363281 206.773438 250 C 208.390625 250.730469 210.6875 249.964844 210.160156 248.519531 C 209.910156 247.828125 208.867188 246.910156 207.027344 247.210938 " fill-opacity="1" fill-rule="nonzero"/><path fill="#8c52ff" d="M 172.195312 114.984375 C 172.339844 113.59375 171.769531 112.277344 170.558594 112.476562 C 168.691406 112.933594 167.898438 116.035156 168.960938 117.25 C 169.957031 118.390625 171.957031 117.285156 172.195312 114.984375 " fill-opacity="1" fill-rule="nonzero"/><path fill="#8c52ff" d="M 204.925781 254.660156 C 206.433594 254.9375 207.773438 254.375 207.125 253.394531 C 206.601562 252.597656 205.226562 252.140625 204 252.355469 C 203.800781 252.398438 203.46875 252.46875 203.214844 252.648438 C 202.367188 253.253906 203.308594 254.363281 204.925781 254.660156 " fill-opacity="1" fill-rule="nonzero"/><path fill="#8c52ff" d="M 214.476562 242.316406 C 214.289062 241.542969 213.304688 240.519531 211.363281 240.882812 C 209.066406 241.496094 209.183594 243.390625 210.554688 244.1875 C 212.367188 245.238281 214.898438 244.03125 214.476562 242.316406 " fill-opacity="1" fill-rule="nonzero"/><path fill="#8c52ff" d="M 211.171875 173.414062 C 208.027344 174.289062 208.171875 178.171875 210.144531 179.640625 C 212.375 181.296875 215.949219 179.429688 215.320312 176.164062 C 215.089844 174.945312 213.917969 172.800781 211.171875 173.414062 " fill-opacity="1" fill-rule="nonzero"/><path fill="#8c52ff" d="M 158.6875 95.207031 C 157.738281 95.257812 154.042969 98.390625 154.039062 99.152344 C 154.039062 99.535156 155.039062 99.03125 156.714844 97.53125 C 156.738281 97.511719 159.125 95.367188 158.6875 95.207031 " fill-opacity="1" fill-rule="nonzero"/><path fill="#8c52ff" d="M 150.875 98.574219 C 150.84375 98.890625 151.914062 98.269531 153.53125 97.027344 C 153.789062 96.828125 156.058594 95.074219 156.089844 94.722656 C 156.082031 94.714844 156.074219 94.707031 156.066406 94.699219 C 155.351562 94.652344 150.9375 97.949219 150.875 98.574219 " fill-opacity="1" fill-rule="nonzero"/><path fill="#8c52ff" d="M 214.734375 198.144531 C 216.878906 199.714844 220.445312 197.980469 220 194.851562 C 219.828125 193.636719 218.757812 191.511719 215.9375 192.144531 C 212.515625 193.261719 213.035156 196.898438 214.734375 198.144531 " fill-opacity="1" fill-rule="nonzero"/><path fill="#8c52ff" d="M 181.855469 130.277344 C 183.589844 131.703125 185.957031 130 185.636719 127.554688 C 185.492188 126.453125 184.589844 124.8125 182.78125 125.117188 C 180.734375 125.589844 180.148438 128.871094 181.855469 130.277344 " fill-opacity="1" fill-rule="nonzero"/><path fill="#8c52ff" d="M 223.609375 211.707031 C 223.390625 210.140625 221.667969 209.121094 219.992188 209.566406 C 217.507812 210.375 216.707031 213.214844 218.566406 214.632812 C 220.835938 216.367188 223.945312 214.121094 223.609375 211.707031 " fill-opacity="1" fill-rule="nonzero"/><path fill="#8c52ff" d="M 205.230469 257.851562 C 205.949219 257.730469 206.046875 257.355469 205.46875 256.941406 C 204.992188 256.601562 203.757812 256.117188 202.484375 256.273438 C 202.066406 256.339844 201.890625 256.464844 201.816406 256.5625 C 201.320312 257.207031 203.710938 258.109375 205.230469 257.851562 " fill-opacity="1" fill-rule="nonzero"/><path fill="#8c52ff" d="M 165.179688 110.765625 C 165.832031 111.890625 167.53125 110.777344 168.0625 108.871094 C 168.414062 107.605469 168.140625 106.28125 167.179688 106.410156 C 165.722656 106.746094 164.453125 109.511719 165.179688 110.765625 " fill-opacity="1" fill-rule="nonzero"/><path fill="#8c52ff" d="M 216.824219 233.417969 C 214.910156 233.988281 214.160156 235.875 215.417969 236.960938 C 217.191406 238.492188 220.027344 236.988281 219.894531 235.105469 C 219.8125 233.898438 218.292969 233.0625 216.824219 233.417969 " fill-opacity="1" fill-rule="nonzero"/><path fill="#8c52ff" d="M 192.664062 137.167969 C 192.664062 137.167969 192.664062 137.167969 192.667969 137.167969 C 192.667969 137.167969 192.671875 137.167969 192.671875 137.167969 C 194.300781 136.636719 194.667969 134.992188 194.515625 134.019531 C 194.269531 132.40625 192.691406 131.210938 191.269531 131.550781 C 190.984375 131.644531 190.386719 131.832031 189.890625 132.609375 C 188.507812 134.761719 190.246094 137.617188 192.664062 137.167969 " fill-opacity="1" fill-rule="nonzero"/><path fill="#8c52ff" d="M 205.269531 160.898438 C 207.777344 162.789062 210.5625 160.492188 210.070312 157.8125 C 209.773438 156.210938 208.1875 154.746094 206.140625 155.164062 C 203.664062 155.984375 203.160156 159.308594 205.269531 160.898438 " fill-opacity="1" fill-rule="nonzero"/><path fill="#8c52ff" d="M 149.195312 97.539062 C 149.421875 97.609375 150.988281 96.5625 151.652344 96.109375 C 151.679688 96.089844 154.429688 94.207031 154.503906 93.914062 C 153.972656 93.785156 149.160156 97.070312 149.195312 97.539062 " fill-opacity="1" fill-rule="nonzero"/><path fill="#8c52ff" d="M 165.773438 100.640625 C 164.675781 100.882812 162.996094 103.425781 163.425781 104.5625 C 163.808594 105.566406 165.3125 104.265625 165.96875 102.6875 C 166.394531 101.671875 166.398438 100.578125 165.773438 100.640625 " fill-opacity="1" fill-rule="nonzero"/><path fill="#8c52ff" d="M 162.210938 95.375 C 161.449219 95.394531 158.402344 98.265625 158.417969 99.195312 C 158.429688 99.789062 159.792969 98.785156 160.914062 97.558594 C 161.578125 96.832031 162.640625 95.445312 162.210938 95.375 " fill-opacity="1" fill-rule="nonzero"/><path fill="#8c52ff" d="M 205.472656 259.300781 C 204.722656 259.058594 203.335938 258.855469 202.597656 258.945312 C 202.460938 258.964844 202.234375 259 202.199219 259.113281 C 202.039062 259.613281 205.355469 259.996094 205.960938 259.71875 C 206.207031 259.609375 205.867188 259.429688 205.472656 259.300781 " fill-opacity="1" fill-rule="nonzero"/><path fill="#8c52ff" d="M 140.414062 101.339844 C 140.421875 101.328125 140.429688 101.3125 140.4375 101.300781 C 140.117188 101.441406 136.203125 105.027344 136 105.464844 C 136.070312 105.414062 136.070312 105.414062 137.691406 103.910156 C 139.757812 101.984375 140.25 101.527344 140.414062 101.339844 " fill-opacity="1" fill-rule="nonzero"/><path fill="#8c52ff" d="M 143.660156 99.375 C 146.207031 97.433594 146.398438 97.210938 146.539062 97.046875 C 146.265625 96.902344 141.890625 100.25 141.855469 100.628906 C 141.898438 100.632812 142 100.640625 143.660156 99.375 " fill-opacity="1" fill-rule="nonzero"/><path fill="#8c52ff" d="M 159.710938 93.121094 C 159.820312 93.253906 160.492188 92.882812 162.109375 91.800781 C 162.453125 91.574219 164.164062 90.417969 164.246094 90.203125 C 164.238281 90.199219 164.234375 90.191406 164.230469 90.1875 C 163.90625 90.144531 159.777344 92.570312 159.710938 93.121094 " fill-opacity="1" fill-rule="nonzero"/><path fill="#8c52ff" d="M 225.984375 226.800781 C 225.988281 226.773438 225.859375 224.316406 223.140625 225.046875 C 220.011719 226.003906 221.367188 228.507812 221.664062 228.8125 C 222.671875 229.847656 225.847656 229.296875 225.984375 226.800781 " fill-opacity="1" fill-rule="nonzero"/><path fill="#8c52ff" d="M 166.292969 95.34375 C 165.460938 95.507812 163.582031 97.851562 163.683594 98.597656 C 163.757812 99.164062 164.832031 98.546875 165.730469 97.222656 C 165.949219 96.902344 167 95.304688 166.292969 95.34375 " fill-opacity="1" fill-rule="nonzero"/><g clip-path="url(#35dbe72e4d)"><path fill="#8c52ff" d="M 207 260.386719 C 205.609375 260.328125 204.980469 260.320312 204.523438 260.359375 C 204.289062 260.382812 204.277344 260.398438 204.265625 260.425781 C 204.574219 260.601562 207.496094 260.558594 207.917969 260.453125 C 207.894531 260.433594 207.882812 260.425781 207 260.386719 " fill-opacity="1" fill-rule="nonzero"/></g><path fill="#8c52ff" d="M 225.777344 203.890625 C 226.195312 204.203125 227.34375 204.816406 228.980469 203.742188 C 229.515625 203.386719 230.382812 202.5625 230.160156 201.003906 C 229.871094 198.960938 228.226562 198.683594 226.90625 199.066406 C 224.25 200 224.523438 202.949219 225.777344 203.890625 " fill-opacity="1" fill-rule="nonzero"/><path fill="#8c52ff" d="M 221.660156 186.148438 C 222.964844 187.226562 226.597656 186.613281 226.234375 183.113281 C 226.230469 183.082031 225.765625 179.945312 222.710938 180.722656 C 219.449219 181.703125 220.570312 185.242188 221.660156 186.148438 " fill-opacity="1" fill-rule="nonzero"/><path fill="#8c52ff" d="M 216.847656 167.402344 C 217.097656 167.570312 218.425781 168.371094 219.941406 167.324219 C 220.601562 166.863281 221.324219 166.007812 221.003906 164.519531 C 220.585938 162.589844 219.207031 161.714844 217.398438 162.234375 C 214.75 163.1875 215.347656 166.378906 216.847656 167.402344 " fill-opacity="1" fill-rule="nonzero"/><path fill="#8c52ff" d="M 200.695312 143.046875 C 202.207031 143.929688 204.910156 143.113281 204.328125 140.402344 C 204.023438 138.996094 202.832031 137.761719 201.136719 138.128906 C 198.476562 138.875 199.167969 142.160156 200.695312 143.046875 " fill-opacity="1" fill-rule="nonzero"/><path fill="#8c52ff" d="M 153.785156 92.992188 C 153.785156 92.984375 153.777344 92.980469 153.773438 92.972656 C 153.335938 92.984375 149.574219 95.28125 149.050781 95.960938 C 149.277344 95.929688 149.820312 95.628906 151.1875 94.761719 C 153.132812 93.53125 153.714844 93.132812 153.785156 92.992188 " fill-opacity="1" fill-rule="nonzero"/><path fill="#8c52ff" d="M 212.089844 254.773438 C 211.945312 254.804688 211.699219 254.863281 211.523438 254.988281 C 211.082031 255.296875 211.234375 255.9375 212.34375 256.191406 C 213.292969 256.410156 214.59375 256.0625 214.152344 255.347656 C 213.882812 254.910156 213.140625 254.5625 212.089844 254.773438 " fill-opacity="1" fill-rule="nonzero"/><path fill="#8c52ff" d="M 162.53125 93.433594 C 162.886719 93.304688 163.371094 93.058594 164.519531 92.140625 C 165.453125 91.390625 166.527344 90.488281 166.308594 90.433594 C 166.308594 90.433594 166.304688 90.433594 166.304688 90.433594 C 165.835938 90.460938 162.132812 93.046875 162.53125 93.433594 " fill-opacity="1" fill-rule="nonzero"/><g clip-path="url(#f13e001749)"><path fill="#8c52ff" d="M 157.945312 92.550781 C 158.339844 92.441406 158.972656 92.113281 160.371094 91.296875 C 162.722656 89.917969 162.75 89.835938 162.777344 89.761719 C 162.433594 89.710938 158.21875 92.003906 157.945312 92.550781 " fill-opacity="1" fill-rule="nonzero"/></g><path fill="#8c52ff" d="M 215.269531 250.371094 C 215.195312 250.386719 215.125 250.40625 215.054688 250.429688 C 214.113281 250.71875 213.621094 251.679688 214.816406 252.265625 C 215.871094 252.78125 217.648438 252.160156 217.324219 251.152344 C 217.265625 250.96875 216.882812 250.054688 215.269531 250.371094 " fill-opacity="1" fill-rule="nonzero"/><path fill="#8c52ff" d="M 174.578125 108.714844 C 175.097656 109.390625 176.664062 109.179688 176.84375 107.058594 C 176.84375 107.039062 176.835938 105.164062 175.589844 105.339844 C 174.171875 105.644531 173.984375 107.949219 174.578125 108.714844 " fill-opacity="1" fill-rule="nonzero"/><path fill="#8c52ff" d="M 180.074219 114.574219 C 180.082031 114.578125 180.882812 115.238281 181.628906 114.710938 C 181.898438 114.523438 182.613281 114.019531 182.535156 112.839844 C 182.527344 112.753906 182.371094 110.65625 180.742188 110.933594 C 179.152344 111.304688 179.113281 113.761719 180.074219 114.574219 " fill-opacity="1" fill-rule="nonzero"/><path fill="#8c52ff" d="M 219.71875 244.773438 C 218.136719 245.21875 218.066406 246.457031 218.859375 247.03125 C 219.75 247.675781 221.9375 247.089844 221.757812 245.695312 C 221.644531 244.84375 220.863281 244.492188 219.71875 244.773438 " fill-opacity="1" fill-rule="nonzero"/><path fill="#8c52ff" d="M 211.472656 149.199219 C 212.691406 149.972656 215.398438 149.457031 214.929688 146.691406 C 214.851562 146.234375 213.992188 144.0625 211.765625 144.707031 C 209.191406 145.589844 210.40625 148.519531 211.472656 149.199219 " fill-opacity="1" fill-rule="nonzero"/><path fill="#8c52ff" d="M 230.039062 215.65625 C 227.4375 216.53125 228.101562 218.777344 228.511719 219.300781 C 229.480469 220.535156 232.472656 219.777344 232.628906 217.308594 C 232.652344 216.929688 232.277344 215.003906 230.039062 215.65625 " fill-opacity="1" fill-rule="nonzero"/><path fill="#8c52ff" d="M 145.515625 97.054688 C 147.582031 95.535156 147.582031 95.535156 147.707031 95.421875 C 147.722656 95.410156 147.738281 95.394531 147.746094 95.378906 C 147.414062 95.519531 144.4375 97.734375 144.207031 98.011719 C 144.667969 97.730469 145.078125 97.375 145.515625 97.054688 " fill-opacity="1" fill-rule="nonzero"/><g clip-path="url(#c64c0f1215)"><path fill="#8c52ff" d="M 161.847656 89.230469 C 161.691406 89.144531 157.90625 90.992188 157.460938 91.484375 C 157.582031 91.523438 158.164062 91.238281 159.503906 90.539062 C 161.378906 89.5625 161.792969 89.332031 161.847656 89.230469 " fill-opacity="1" fill-rule="nonzero"/></g><path fill="#8c52ff" d="M 212.019531 258.691406 C 212.644531 258.605469 212.769531 258.441406 212.410156 258.179688 C 212.402344 258.175781 211.617188 257.6875 210.492188 257.886719 C 210.355469 257.914062 210.078125 257.96875 209.988281 258.089844 C 209.773438 258.375 210.917969 258.847656 212.019531 258.691406 " fill-opacity="1" fill-rule="nonzero"/><path fill="#8c52ff" d="M 172.960938 101.585938 C 173.097656 100.832031 173.097656 99.953125 172.324219 100.046875 C 171.148438 100.269531 170.683594 102.507812 171.109375 103.0625 C 171.511719 103.578125 172.667969 103.207031 172.960938 101.585938 " fill-opacity="1" fill-rule="nonzero"/><path fill="#8c52ff" d="M 227.273438 239.03125 C 227.253906 238.46875 226.980469 237.585938 225.378906 237.972656 C 223.035156 238.691406 223.996094 240.320312 224.210938 240.511719 C 224.992188 241.21875 227.324219 240.566406 227.273438 239.03125 " fill-opacity="1" fill-rule="nonzero"/><path fill="#8c52ff" d="M 167.785156 91.933594 C 167.832031 91.886719 167.890625 91.828125 167.9375 91.777344 C 169.015625 90.660156 168.949219 90.535156 168.808594 90.539062 C 168.253906 90.625 166.105469 92.613281 166.074219 93.066406 C 166.058594 93.273438 166.46875 93.273438 167.785156 91.933594 " fill-opacity="1" fill-rule="nonzero"/><path fill="#8c52ff" d="M 187.292969 120.46875 C 188.304688 121.140625 190.226562 120.503906 189.808594 118.488281 C 189.589844 117.4375 188.90625 116.425781 187.636719 116.734375 C 185.707031 117.3125 186.371094 119.863281 187.292969 120.46875 " fill-opacity="1" fill-rule="nonzero"/><path fill="#8c52ff" d="M 195.96875 126.28125 C 197.179688 126.988281 199.019531 126.109375 198.464844 124.25 C 198.238281 123.492188 197.632812 122.277344 196.109375 122.625 C 194.136719 123.175781 194.976562 125.699219 195.96875 126.28125 " fill-opacity="1" fill-rule="nonzero"/><path fill="#8c52ff" d="M 228.304688 173.425781 C 229.390625 174.421875 232.171875 174.09375 231.929688 170.96875 C 231.863281 170.085938 230.792969 169.371094 230.78125 169.363281 C 230.097656 168.9375 229.453125 169.113281 229.105469 169.207031 C 226.710938 169.996094 227.390625 172.589844 228.304688 173.425781 " fill-opacity="1" fill-rule="nonzero"/><path fill="#8c52ff" d="M 210.523438 259.660156 C 210.429688 259.679688 210.230469 259.710938 210.234375 259.761719 C 210.242188 259.835938 210.699219 259.914062 211.421875 259.921875 C 211.777344 259.921875 212.613281 259.875 212.652344 259.78125 C 212.628906 259.757812 212.589844 259.738281 212.3125 259.695312 C 212.300781 259.691406 211.296875 259.546875 210.523438 259.660156 " fill-opacity="1" fill-rule="nonzero"/><path fill="#8c52ff" d="M 169.566406 97.535156 C 169.613281 97.671875 169.773438 97.957031 170.210938 97.632812 C 170.457031 97.453125 170.8125 97.128906 171.109375 96.390625 C 171.324219 95.863281 171.597656 94.980469 171.050781 95.023438 C 170.320312 95.140625 169.359375 96.949219 169.566406 97.535156 " fill-opacity="1" fill-rule="nonzero"/><path fill="#8c52ff" d="M 233.03125 192.097656 C 233.632812 192.515625 234.824219 192.535156 235.242188 192.242188 C 235.632812 191.972656 236.820312 191.140625 236.578125 189.625 C 236.382812 188.40625 235.480469 187.398438 233.910156 187.898438 C 231.429688 188.8125 232.144531 191.476562 233.03125 192.097656 " fill-opacity="1" fill-rule="nonzero"/><path fill="#8c52ff" d="M 151.886719 93.195312 C 151.90625 93.183594 153.863281 92.042969 154.082031 91.835938 C 154.082031 91.832031 154.082031 91.820312 154.082031 91.816406 C 153.757812 91.871094 150.800781 93.585938 150.40625 93.996094 C 150.410156 94 150.410156 94.007812 150.410156 94.011719 C 150.535156 93.976562 150.894531 93.773438 151.886719 93.195312 " fill-opacity="1" fill-rule="nonzero"/><path fill="#8c52ff" d="M 237.261719 205.511719 C 235.414062 206.121094 235.242188 208.027344 236.113281 208.902344 C 237.082031 209.875 239.394531 208.835938 239.363281 207.046875 C 239.355469 206.691406 239.226562 204.953125 237.261719 205.511719 " fill-opacity="1" fill-rule="nonzero"/><path fill="#8c52ff" d="M 233.558594 231.179688 C 233.5625 230.71875 233.40625 229.695312 231.871094 230.097656 C 230.082031 230.640625 230.125 232.164062 230.625 232.6875 C 231.386719 233.488281 233.546875 232.613281 233.558594 231.179688 " fill-opacity="1" fill-rule="nonzero"/><path fill="#8c52ff" d="M 222.949219 155.074219 C 224.210938 155.875 226.386719 154.894531 225.835938 152.917969 C 225.695312 152.40625 225.089844 150.777344 223.226562 151.296875 C 221.125 151.996094 221.910156 154.417969 222.949219 155.074219 " fill-opacity="1" fill-rule="nonzero"/><path fill="#8c52ff" d="M 205.796875 131.933594 C 206.707031 132.507812 208.679688 132.148438 208.203125 130.140625 C 208.199219 130.121094 207.636719 128.121094 205.855469 128.644531 C 203.898438 129.3125 205.097656 131.488281 205.796875 131.933594 " fill-opacity="1" fill-rule="nonzero"/><path fill="#8c52ff" d="M 171.308594 91.597656 C 171.390625 91.484375 172.121094 90.476562 171.765625 90.476562 C 171.238281 90.585938 170.136719 92.09375 170.15625 92.429688 C 170.15625 92.433594 170.3125 92.953125 171.308594 91.597656 " fill-opacity="1" fill-rule="nonzero"/><path fill="#8c52ff" d="M 218.632812 256.445312 C 218.578125 256.457031 218.523438 256.472656 218.46875 256.492188 C 217.96875 256.660156 218.09375 256.917969 218.335938 257.039062 C 218.730469 257.238281 219.707031 257.078125 219.570312 256.652344 C 219.566406 256.648438 219.359375 256.296875 218.632812 256.445312 " fill-opacity="1" fill-rule="nonzero"/><path fill="#8c52ff" d="M 238.847656 221.316406 C 237.894531 221.664062 237.222656 222.847656 237.84375 223.578125 C 238.472656 224.324219 240.171875 223.628906 240.296875 222.292969 C 240.390625 221.269531 239.636719 221.066406 238.847656 221.316406 " fill-opacity="1" fill-rule="nonzero"/><path fill="#8c52ff" d="M 216.730469 137.5 C 217.878906 138.070312 219.171875 137.164062 218.632812 135.765625 C 218.28125 134.855469 217.476562 134.425781 216.625 134.699219 C 215.078125 135.28125 215.890625 137.085938 216.730469 137.5 " fill-opacity="1" fill-rule="nonzero"/><path fill="#8c52ff" d="M 221.925781 252.894531 C 221.1875 253.082031 221.070312 253.542969 221.3125 253.78125 C 221.738281 254.195312 222.90625 253.828125 222.878906 253.292969 C 222.867188 253.070312 222.652344 252.734375 221.925781 252.894531 " fill-opacity="1" fill-rule="nonzero"/><path fill="#8c52ff" d="M 240.070312 179.363281 C 240.792969 179.902344 242.496094 179.285156 242.246094 177.726562 C 242.121094 176.945312 241.714844 176.097656 240.496094 176.472656 C 238.910156 177.039062 239.390625 178.855469 240.070312 179.363281 " fill-opacity="1" fill-rule="nonzero"/><path fill="#8c52ff" d="M 244.382812 194.789062 C 242.859375 195.332031 243.210938 197 243.730469 197.375 C 243.734375 197.378906 244.398438 197.824219 245.210938 197.222656 C 245.394531 197.085938 245.949219 196.679688 245.859375 195.800781 C 245.808594 195.265625 245.546875 194.425781 244.382812 194.789062 " fill-opacity="1" fill-rule="nonzero"/><path fill="#8c52ff" d="M 226.5 248.097656 C 225.363281 248.4375 225.808594 249.203125 225.8125 249.210938 C 226.105469 249.578125 227.359375 249.296875 227.429688 248.554688 C 227.445312 248.335938 227.398438 247.855469 226.5 248.097656 " fill-opacity="1" fill-rule="nonzero"/><path fill="#8c52ff" d="M 191.480469 111.167969 C 191.984375 111.453125 193.035156 111.164062 192.683594 110.070312 C 192.570312 109.71875 192.222656 108.929688 191.414062 109.144531 C 190.324219 109.5 190.996094 110.890625 191.480469 111.167969 " fill-opacity="1" fill-rule="nonzero"/><path fill="#8c52ff" d="M 217.726562 258.683594 C 217.628906 258.636719 217.359375 258.542969 216.878906 258.640625 C 216.800781 258.65625 216.640625 258.691406 216.613281 258.746094 C 216.539062 258.882812 217.273438 258.964844 217.6875 258.824219 C 217.816406 258.777344 217.828125 258.734375 217.726562 258.683594 " fill-opacity="1" fill-rule="nonzero"/><path fill="#8c52ff" d="M 184.386719 105.96875 C 184.746094 106.273438 185.742188 106.238281 185.601562 105.039062 C 185.601562 105.027344 185.402344 103.855469 184.527344 104.066406 C 183.664062 104.324219 183.972656 105.613281 184.386719 105.96875 " fill-opacity="1" fill-rule="nonzero"/><path fill="#8c52ff" d="M 176.628906 95.410156 C 176.671875 95.132812 176.726562 94.496094 176.300781 94.554688 C 175.75 94.671875 175.621094 95.800781 175.832031 96.050781 C 176.03125 96.28125 176.511719 96.136719 176.628906 95.410156 " fill-opacity="1" fill-rule="nonzero"/><path fill="#8c52ff" d="M 179.171875 100.941406 C 179.28125 101.035156 179.574219 101.214844 179.910156 100.90625 C 180.054688 100.777344 180.21875 100.519531 180.179688 100.03125 C 180.160156 99.796875 180.054688 99.035156 179.457031 99.164062 C 178.683594 99.382812 178.835938 100.65625 179.171875 100.941406 " fill-opacity="1" fill-rule="nonzero"/><path fill="#8c52ff" d="M 234.738281 160.746094 C 235.359375 161.117188 237.035156 160.828125 236.664062 159.113281 C 236.660156 159.097656 236.277344 157.636719 234.914062 158.054688 C 233.363281 158.609375 234.101562 160.367188 234.738281 160.746094 " fill-opacity="1" fill-rule="nonzero"/><path fill="#8c52ff" d="M 200.121094 116.296875 C 200.714844 116.519531 200.875 116.34375 201.074219 116.121094 C 201.175781 116.011719 201.382812 115.695312 201.15625 115.148438 C 200.90625 114.550781 200.359375 114.238281 199.828125 114.390625 C 199.800781 114.402344 199.769531 114.410156 199.742188 114.421875 C 199.035156 114.722656 199.292969 115.980469 200.121094 116.296875 " fill-opacity="1" fill-rule="nonzero"/><path fill="#8c52ff" d="M 232.308594 241.988281 C 231.515625 242.230469 231.269531 242.886719 231.492188 243.210938 C 231.703125 243.519531 232.332031 243.363281 232.339844 243.359375 C 232.34375 243.359375 233.003906 243.007812 233.097656 242.558594 C 233.144531 242.34375 233.097656 241.785156 232.308594 241.988281 " fill-opacity="1" fill-rule="nonzero"/><path fill="#8c52ff" d="M 238.898438 234.804688 C 238.089844 235.089844 238.144531 235.777344 238.253906 235.921875 C 238.480469 236.226562 239.390625 235.945312 239.527344 235.300781 C 239.554688 235.175781 239.652344 234.5625 238.898438 234.804688 " fill-opacity="1" fill-rule="nonzero"/><g clip-path="url(#e2432a64a5)"><path fill="#8c52ff" d="M 246.207031 211.691406 C 245.386719 211.984375 245.21875 212.964844 245.585938 213.367188 C 245.988281 213.816406 247.152344 213.242188 247.1875 212.386719 C 247.203125 212.003906 247.097656 211.402344 246.207031 211.691406 " fill-opacity="1" fill-rule="nonzero"/></g><path fill="#8c52ff" d="M 228.199219 142.824219 C 228.789062 143.117188 229.851562 142.652344 229.464844 141.660156 C 229.316406 141.277344 228.949219 140.664062 228.171875 140.90625 C 227.027344 141.316406 227.695312 142.570312 228.199219 142.824219 " fill-opacity="1" fill-rule="nonzero"/><path fill="#8c52ff" d="M 209.898438 121.261719 C 209.941406 121.277344 210.316406 121.414062 210.570312 121.171875 C 210.773438 120.976562 210.824219 120.742188 210.714844 120.476562 C 210.710938 120.46875 210.378906 119.675781 209.695312 119.859375 C 209.664062 119.871094 209.628906 119.886719 209.597656 119.898438 C 208.960938 120.199219 209.421875 121.070312 209.898438 121.261719 " fill-opacity="1" fill-rule="nonzero"/></svg>